# xmcd
#
# Track frame offsets:
#	150
#	18135
#	35051
#	52500
#	82536
#	103601
#	125140
#	147881
#	170322
#	189126
#	207893
#	233894
#
# Disc length: 3433 seconds
#
# Revision: 1
# Processed by: cddbd v1.5.2PL0 Copyright (c) Steve Scherf et al.
# Submitted via: EZCDAudioConverter 8.0.2.1
#
DISCID=8a0d670c
DTITLE=Various Artist - Top hits 30. Tình Dù Trăm Lối
DYEAR=2007
DGENRE=Pop
TTITLE0=Huỳnh Gia Tuấn - Girls
TTITLE1=Thủy Tiên, Lưu Bích - Magic In The Air
TTITLE2=Angela Trâm Anh, Vân Huỳnh - I Will Survive
TTITLE3=Trần Thu Hà - Những con đường tình yêu
TTITLE4=Lương Tùng Quang, Minh Tuyết - Tình Dù Trăm Lối
TTITLE5=Dương Triệu Vũ, Ngọc Liên - Lại gần hôn em
TTITLE6=Tốp ca - Những bước chân âm thầm
TTITLE7=Hồ Lệ Thu, Nguyễn Hưng - Nhớ anh đêm nay
TTITLE8=Tú Quyên, Shayla - Waiting For Your Call
TTITLE9=Trúc Lam, Trúc Linh - Xin cho anh yêu
TTITLE10=Tốp ca - Sao em nỡ vội lấy chồng
TTITLE11=Bảo Hân, Như Loan - Sẽ không quên người
EXTD=
EXTT0=
EXTT1=
EXTT2=
EXTT3=
EXTT4=
EXTT5=
EXTT6=
EXTT7=
EXTT8=
EXTT9=
EXTT10=
EXTT11=
PLAYORDER=
